<?xml version="1.0" encoding="UTF-8" standalone="no"?>
<!-- Created with Inkscape (http://www.inkscape.org/) -->

<svg
   width="100mm"
   height="34.23mm"
   viewBox="0 0 100 34.23"
   version="1.1"
   id="svg5"
   inkscape:version="1.1 (c4e8f9e, 2021-05-24)"
   sodipodi:docname="logo.svg"
   xmlns:inkscape="http://www.inkscape.org/namespaces/inkscape"
   xmlns:sodipodi="http://sodipodi.sourceforge.net/DTD/sodipodi-0.dtd"
   xmlns:xlink="http://www.w3.org/1999/xlink"
   xmlns="http://www.w3.org/2000/svg"
   xmlns:svg="http://www.w3.org/2000/svg">
  <sodipodi:namedview
     id="namedview7"
     pagecolor="#ffffff"
     bordercolor="#666666"
     borderopacity="1.0"
     inkscape:pageshadow="2"
     inkscape:pageopacity="0.0"
     inkscape:pagecheckerboard="0"
     inkscape:document-units="mm"
     showgrid="false"
     inkscape:zoom="0.55411055"
     inkscape:cx="396.13034"
     inkscape:cy="560.3575"
     inkscape:window-width="1464"
     inkscape:window-height="841"
     inkscape:window-x="0"
     inkscape:window-y="38"
     inkscape:window-maximized="0"
     inkscape:current-layer="layer1" />
  <defs
     id="defs2">
    <rect
       x="315.82144"
       y="84.820618"
       width="471.02515"
       height="198.51634"
       id="rect2679" />
    <linearGradient
       id="linearGradient8301">
      <stop
         id="stop8314"
         stop-color="#000086"
         offset="0" />
      <stop
         id="stop8316"
         stop-color="#005aff"
         offset="1" />
    </linearGradient>
    <linearGradient
       id="linearGradient2060">
      <stop
         id="stop2062"
         stop-color="#ebf0d0"
         offset="0" />
      <stop
         id="stop2064"
         stop-color="#ffffeb"
         offset="1" />
    </linearGradient>
    <linearGradient
       id="linearGradient4853"
       x1="2"
       xlink:href="#linearGradient2060"
       gradientUnits="userSpaceOnUse"
       y1="63.099998"
       gradientTransform="translate(0,-1)"
       x2="109"
       y2="128.7" />
    <linearGradient
       id="linearGradient6788"
       x1="2"
       xlink:href="#linearGradient2060"
       gradientUnits="userSpaceOnUse"
       y1="63.099998"
       gradientTransform="translate(0,-1)"
       x2="109"
       y2="128.7" />
    <linearGradient
       id="linearGradient6790"
       x1="2"
       xlink:href="#linearGradient2060"
       gradientUnits="userSpaceOnUse"
       y1="63.099998"
       gradientTransform="translate(0,-1)"
       x2="109"
       y2="128.7" />
    <linearGradient
       id="linearGradient6792"
       x1="2"
       xlink:href="#linearGradient2060"
       gradientUnits="userSpaceOnUse"
       y1="63.099998"
       gradientTransform="translate(0,-1)"
       x2="109"
       y2="128.7" />
    <linearGradient
       id="linearGradient6794"
       x1="2"
       xlink:href="#linearGradient2060"
       gradientUnits="userSpaceOnUse"
       y1="63.099998"
       gradientTransform="translate(0,-1)"
       x2="109"
       y2="128.7" />
    <linearGradient
       id="linearGradient8318"
       x1="138.23"
       xlink:href="#linearGradient8301"
       gradientUnits="userSpaceOnUse"
       y1="146.62"
       gradientTransform="scale(0.85424,1.1706)"
       x2="36.52"
       y2="18.728001" />
    <linearGradient
       id="linearGradient9086"
       x1="22.028999"
       xlink:href="#linearGradient8301"
       gradientUnits="userSpaceOnUse"
       y1="17.153"
       gradientTransform="scale(0.85537,1.1691)"
       x2="146.39999"
       y2="140.45" />
  </defs>
  <g
     inkscape:label="Layer 1"
     inkscape:groupmode="layer"
     id="layer1">
    <g
       id="g1091"
       transform="matrix(0.14881047,0.05416258,-0.05416258,0.14881047,9.2132866,-0.91502997)">
      <g
         id="g5630">
        <path
           id="rect2070"
           d="m 21,5 h 103 c 8.86,0 16,7.136 16,16 v 153 c 0,8.86 -7.14,16 -16,16 H 21 C 12.136,190 5,182.86 5,174 V 21 C 5,12.136 12.136,5 21,5 Z"
           fill-opacity="0.49804" />
        <path
           id="rect1300"
           d="m 17,1 h 103 c 8.86,0 16,7.136 16,16 v 153 c 0,8.86 -7.14,16 -16,16 H 17 C 8.136,186 1,178.86 1,170 V 17 C 1,8.136 8.136,1 17,1 Z"
           fill="#ffffff" />
        <path
           id="path5624"
           d="m 19,3 h 103 c 8.86,0 16,7.136 16,16 v 153 c 0,8.86 -7.14,16 -16,16 H 19 C 10.136,188 3,180.86 3,172 V 19 C 3,10.136 10.136,3 19,3 Z"
           fill="#c7891f" />
        <path
           id="rect1306"
           d="m 18,2 h 103 c 8.86,0 16,7.136 16,16 v 153 c 0,8.86 -7.14,16 -16,16 H 18 C 9.136,187 2,179.86 2,171 V 18 C 2,9.136 9.136,2 18,2 Z"
           fill="url(#linearGradient4853)"
           style="fill:url(#linearGradient4853)" />
      </g>
      <path
         id="path1385"
         d="m 22.167,10 h 94.413 c 8.13,0 14.67,6.541 14.67,14.667 v 140.25 c 0,8.12 -6.54,14.66 -14.67,14.66 H 22.167 c -8.126,0 -14.667,-6.54 -14.667,-14.66 V 24.667 c 0,-8.129 6.541,-14.67 14.667,-14.67 z"
         fill="url(#linearGradient8318)"
         style="fill:url(#linearGradient8318)" />
      <path
         id="path2154"
         d="m 22.156,9.375 c -8.461,0 -15.281,6.82 -15.281,15.281 v 140.25 c 0,8.46 6.82,15.31 15.281,15.31 h 94.434 c 8.46,0 15.29,-6.85 15.29,-15.31 V 24.656 c 0,-8.465 -6.83,-15.285 -15.29,-15.285 H 22.156 Z m 0,1.25 h 94.434 c 7.79,0 14.03,6.241 14.03,14.031 v 140.25 c 0,7.79 -6.24,14.06 -14.03,14.06 H 22.156 c -7.79,0 -14.031,-6.27 -14.031,-14.06 V 24.656 c 0,-7.794 6.241,-14.035 14.031,-14.035 z"
         fill="url(#linearGradient9086)"
         style="fill:url(#linearGradient9086)" />
      <g
         id="g6732"
         transform="matrix(0.4161,0,0,0.4161,192.04,60.485)">
        <g
           id="g6340"
           transform="matrix(0.95857,-0.28485,0.28485,0.95857,-441.78,17.538)">
          <g
             id="g6342">
            <path
               id="path6344"
               d="m 21,5 h 103 c 8.86,0 16,7.136 16,16 v 153 c 0,8.86 -7.14,16 -16,16 H 21 C 12.136,190 5,182.86 5,174 V 21 C 5,12.136 12.136,5 21,5 Z"
               fill-opacity="0.49804" />
            <path
               id="path6346"
               d="m 17,1 h 103 c 8.86,0 16,7.136 16,16 v 153 c 0,8.86 -7.14,16 -16,16 H 17 C 8.136,186 1,178.86 1,170 V 17 C 1,8.136 8.136,1 17,1 Z"
               fill="#ffffff" />
            <path
               id="path6348"
               d="m 19,3 h 103 c 8.86,0 16,7.136 16,16 v 153 c 0,8.86 -7.14,16 -16,16 H 19 C 10.136,188 3,180.86 3,172 V 19 C 3,10.136 10.136,3 19,3 Z"
               fill="#c7891f" />
            <path
               id="path6350"
               d="m 18,2 h 103 c 8.86,0 16,7.136 16,16 v 153 c 0,8.86 -7.14,16 -16,16 H 18 C 9.136,187 2,179.86 2,171 V 18 C 2,9.136 9.136,2 18,2 Z"
               fill="url(#linearGradient6788)"
               style="fill:url(#linearGradient6788)" />
            <path
               id="rect2941"
               d="m 53,31 c -9.401,0 -17,7.599 -17,17 v 93 c 0,9.4 7.599,17 17,17 h 33 c 9.401,0 17,-7.6 17,-17 V 48 C 103,38.599 95.401,31 86,31 Z m 0,2 h 33 c 8.327,0 15,6.673 15,15 v 93 c 0,8.33 -6.673,15 -15,15 H 53 c -8.327,0 -15,-6.67 -15,-15 V 48 c 0,-8.327 6.673,-15 15,-15 z"
               fill="#4f00a4" />
          </g>
          <path
             id="text1481"
             d="M 25.079,36.775 H 15.078 L 13.499,42.24 H 7.07 l 9.187,-30 h 7.626 l 9.187,30 h -6.429 l -1.562,-5.465 m -8.406,-5.566 h 6.794 L 20.078,19.273 16.673,31.209" />
          <path
             id="text4064"
             d="m 113.61,152.1 h 10 l 1.58,-5.47 h 6.43 l -9.19,30 h -7.62 l -9.19,-30 h 6.43 l 1.56,5.47 m 8.41,5.56 h -6.8 l 3.39,11.94 3.41,-11.94" />
          <path
             id="path908"
             fill-rule="evenodd"
             d="m 20.527,48.665 c -2.666,0 -4.83,3.264 -4.83,7.286 0,3.426 4.392,9.191 4.222,11.929 -1.41,0.783 -5.767,-6.437 -8.019,-6.437 -2.6665,0 -4.83,3.263 -4.83,7.285 0,4.023 2.1635,7.286 4.83,7.286 2.312,0 6.276,-7.214 8.019,-6.563 0.033,0.934 -0.06,9.543 -0.551,10.163 -1.061,1.341 -2.406,1.251 -2.406,1.251 l 0.028,1.46 7.024,-0.042 0.027,-1.46 c 0,0 -1.335,0.104 -2.396,-1.237 -0.489,-0.617 -0.708,-9.784 -0.712,-10.079 h 0.055 v 0.014 c 1.707,-0.64 5.806,6.632 8.102,6.632 2.667,0 4.83,-3.263 4.83,-7.286 0,-4.022 -2.163,-7.285 -4.83,-7.285 -2.242,0 -6.308,7.1 -8.093,6.368 0.025,-2.806 4.36,-8.577 4.36,-11.999 0,-4.022 -2.163,-7.286 -4.83,-7.286 z" />
          <path
             id="path4052"
             fill-rule="evenodd"
             d="m 117.42,139.96 c 2.66,0 4.83,-3.26 4.83,-7.28 0,-3.43 -4.39,-9.19 -4.22,-11.93 1.41,-0.79 5.76,6.43 8.02,6.43 2.66,0 4.83,-3.26 4.83,-7.28 0,-4.02 -2.17,-7.29 -4.83,-7.29 -2.32,0 -6.28,7.22 -8.02,6.57 -0.04,-0.94 0.06,-9.55 0.55,-10.17 1.06,-1.34 2.4,-1.25 2.4,-1.25 l -0.02,-1.46 -7.03,0.04 -0.03,1.46 c 0,0 1.34,-0.1 2.4,1.24 0.49,0.62 0.71,9.79 0.71,10.08 h -0.05 v -0.01 c -1.71,0.64 -5.81,-6.64 -8.1,-6.64 -2.67,0 -4.83,3.27 -4.83,7.29 0,4.02 2.16,7.29 4.83,7.29 2.24,0 6.3,-7.1 8.09,-6.37 -0.03,2.8 -4.36,8.57 -4.36,12 0,4.02 2.16,7.28 4.83,7.28 z" />
          <path
             id="path4078"
             fill-rule="evenodd"
             d="m 69.529,59.05 c -5.726,0 -10.372,7.013 -10.372,15.656 0,7.363 9.432,19.751 9.066,25.634 -3.029,1.68 -12.385,-13.833 -17.221,-13.833 -5.726,0 -10.372,7.013 -10.372,15.653 0,8.65 4.646,15.66 10.372,15.66 4.966,0 13.477,-15.5 17.221,-14.1 0.07,2 -0.129,20.5 -1.183,21.83 -2.279,2.89 -5.166,2.69 -5.166,2.69 l 0.059,3.14 15.083,-0.09 0.06,-3.14 c 0,0 -2.868,0.23 -5.147,-2.66 -1.049,-1.32 -1.521,-21.02 -1.529,-21.65 h 0.119 v 0.03 c 3.666,-1.38 12.468,14.25 17.399,14.25 5.726,0 10.372,-7.02 10.372,-15.66 0,-8.641 -4.646,-15.654 -10.372,-15.654 -4.816,0 -13.546,15.254 -17.379,13.684 0.054,-6.029 9.362,-18.429 9.362,-25.784 0,-8.643 -4.646,-15.656 -10.372,-15.656 z" />
        </g>
        <g
           id="g6465"
           transform="matrix(0.99334,-0.11521,0.11521,0.99334,-393.03,-6.7415)">
          <g
             id="g6467">
            <path
               id="path6469"
               d="m 21,5 h 103 c 8.86,0 16,7.136 16,16 v 153 c 0,8.86 -7.14,16 -16,16 H 21 C 12.136,190 5,182.86 5,174 V 21 C 5,12.136 12.136,5 21,5 Z"
               fill-opacity="0.49804" />
            <path
               id="path6471"
               d="m 17,1 h 103 c 8.86,0 16,7.136 16,16 v 153 c 0,8.86 -7.14,16 -16,16 H 17 C 8.136,186 1,178.86 1,170 V 17 C 1,8.136 8.136,1 17,1 Z"
               fill="#ffffff" />
            <path
               id="path6473"
               d="m 19,3 h 103 c 8.86,0 16,7.136 16,16 v 153 c 0,8.86 -7.14,16 -16,16 H 19 C 10.136,188 3,180.86 3,172 V 19 C 3,10.136 10.136,3 19,3 Z"
               fill="#c7891f" />
            <path
               id="path6475"
               d="m 18,2 h 103 c 8.86,0 16,7.136 16,16 v 153 c 0,8.86 -7.14,16 -16,16 H 18 C 9.136,187 2,179.86 2,171 V 18 C 2,9.136 9.136,2 18,2 Z"
               fill="url(#linearGradient6790)"
               style="fill:url(#linearGradient6790)" />
            <path
               id="path6477"
               d="m 53,31 c -9.401,0 -17,7.599 -17,17 v 93 c 0,9.4 7.599,17 17,17 h 33 c 9.401,0 17,-7.6 17,-17 V 48 C 103,38.599 95.401,31 86,31 Z m 0,2 h 33 c 8.327,0 15,6.673 15,15 v 93 c 0,8.33 -6.673,15 -15,15 H 53 c -8.327,0 -15,-6.67 -15,-15 V 48 c 0,-8.327 6.673,-15 15,-15 z"
               fill="#4f00a4" />
          </g>
          <path
             id="path6479"
             d="M 25.079,36.775 H 15.078 L 13.499,42.24 H 7.07 l 9.187,-30 h 7.626 l 9.187,30 h -6.429 l -1.562,-5.465 m -8.406,-5.566 h 6.794 L 20.078,19.273 16.673,31.209"
             fill="#ff0000" />
          <path
             id="text3802"
             d="m 113.61,152.1 h 10 l 1.58,-5.47 h 6.43 l -9.19,30 h -7.62 l -9.19,-30 h 6.43 l 1.56,5.47 m 8.41,5.56 h -6.8 l 3.39,11.94 3.41,-11.94"
             fill="#ff0000" />
          <path
             id="path1608"
             fill-rule="evenodd"
             fill="#ff0000"
             d="m 20.41,48.665 c -4.126,8.245 -7.135,12.498 -13.34,17.04 5.872,4.487 10.013,9.124 13.46,16.62 3.079,-7.121 6.847,-12.43 13.39,-16.843 C 27.338,62.133 23.527,56.828 20.41,48.665 Z" />
          <path
             id="path1518"
             fill-rule="evenodd"
             fill="#ff0000"
             d="m 118.34,106.34 c -4.13,8.25 -7.13,12.5 -13.34,17.04 5.87,4.49 10.01,9.12 13.46,16.62 3.08,-7.12 6.85,-12.43 13.39,-16.84 -6.58,-3.35 -10.39,-8.66 -13.51,-16.82 z" />
          <path
             id="path3794"
             fill-rule="evenodd"
             fill="#ff0000"
             d="M 69.276,59.05 C 60.416,76.768 53.956,85.906 40.63,95.665 53.241,105.31 62.132,115.27 69.536,131.38 76.148,116.08 84.238,104.67 98.29,95.187 84.155,87.991 75.972,76.592 69.276,59.05 Z" />
        </g>
        <g
           id="g6575"
           transform="matrix(0.9931,0.11728,-0.11728,0.9931,-338.81,-21.109)">
          <g
             id="g6577">
            <path
               id="path6579"
               d="m 21,5 h 103 c 8.86,0 16,7.136 16,16 v 153 c 0,8.86 -7.14,16 -16,16 H 21 C 12.136,190 5,182.86 5,174 V 21 C 5,12.136 12.136,5 21,5 Z"
               fill-opacity="0.49804" />
            <path
               id="path6581"
               d="m 17,1 h 103 c 8.86,0 16,7.136 16,16 v 153 c 0,8.86 -7.14,16 -16,16 H 17 C 8.136,186 1,178.86 1,170 V 17 C 1,8.136 8.136,1 17,1 Z"
               fill="#ffffff" />
            <path
               id="path6583"
               d="m 19,3 h 103 c 8.86,0 16,7.136 16,16 v 153 c 0,8.86 -7.14,16 -16,16 H 19 C 10.136,188 3,180.86 3,172 V 19 C 3,10.136 10.136,3 19,3 Z"
               fill="#c7891f" />
            <path
               id="path6585"
               d="m 18,2 h 103 c 8.86,0 16,7.136 16,16 v 153 c 0,8.86 -7.14,16 -16,16 H 18 C 9.136,187 2,179.86 2,171 V 18 C 2,9.136 9.136,2 18,2 Z"
               fill="url(#linearGradient6792)"
               style="fill:url(#linearGradient6792)" />
            <path
               id="path6587"
               d="m 53,31 c -9.401,0 -17,7.599 -17,17 v 93 c 0,9.4 7.599,17 17,17 h 33 c 9.401,0 17,-7.6 17,-17 V 48 C 103,38.599 95.401,31 86,31 Z m 0,2 h 33 c 8.327,0 15,6.673 15,15 v 93 c 0,8.33 -6.673,15 -15,15 H 53 c -8.327,0 -15,-6.67 -15,-15 V 48 c 0,-8.327 6.673,-15 15,-15 z"
               fill="#4f00a4" />
          </g>
          <path
             id="text2070"
             d="M 25.449,36.534 H 15.448 L 13.869,42 H 7.4399 L 16.627,12 h 7.626 l 9.187,30 h -6.43 l -1.561,-5.466 m -8.407,-5.566 h 6.795 L 20.448,19.033 17.042,30.968"
             fill="#ff0000" />
          <g
             id="g1605"
             transform="matrix(0.28639,0,0,0.38877,-29.034,-9.4724)"
             fill="#ff0000">
            <path
               id="path1585"
               d="m 147.21,156.42 c -2.54,0.01 -5.33,0.48 -8.41,1.53 -33.62,19.53 11.7,51.04 30.84,78.09 l 0.56,0.14 c 21.03,-29.57 61.07,-62.11 30.47,-78.23 -24.23,-8.25 -30.71,19.2 -30.93,20.19 -0.2,-0.87 -5.15,-21.81 -22.53,-21.72 z"
               transform="matrix(1.1054,0,0,1.0796,-12.014,-18.867)"
               fill-rule="evenodd" />
          </g>
          <path
             id="text15628"
             d="m 113.57,152.47 h 10 l 1.58,-5.47 h 6.43 l -9.19,30 h -7.62 l -9.19,-30 h 6.43 l 1.56,5.47 m 8.41,5.56 h -6.8 l 3.39,11.94 3.41,-11.94"
             fill="#ff0000" />
          <g
             id="g15632"
             transform="matrix(-0.28643,0,0,-0.38877,168.06,198.31)"
             fill="#ff0000">
            <path
               id="path15634"
               d="m 147.21,156.42 c -2.54,0.01 -5.33,0.48 -8.41,1.53 -33.62,19.53 11.7,51.04 30.84,78.09 l 0.56,0.14 c 21.03,-29.57 61.07,-62.11 30.47,-78.23 -24.23,-8.25 -30.71,19.2 -30.93,20.19 -0.2,-0.87 -5.15,-21.81 -22.53,-21.72 z"
               transform="matrix(1.1054,0,0,1.0796,-12.014,-18.867)"
               fill-rule="evenodd" />
          </g>
          <g
             id="g1318"
             transform="matrix(0.6133,0,0,0.8398,-37.919,-66.915)"
             fill="#ff0000">
            <path
               id="path1320"
               d="m 147.21,156.42 c -2.54,0.01 -5.33,0.48 -8.41,1.53 -33.62,19.53 11.7,51.04 30.84,78.09 l 0.56,0.14 c 21.03,-29.57 61.07,-62.11 30.47,-78.23 -24.23,-8.25 -30.71,19.2 -30.93,20.19 -0.2,-0.87 -5.15,-21.81 -22.53,-21.72 z"
               transform="matrix(1.1054,0,0,1.0796,-12.014,-18.867)"
               fill-rule="evenodd" />
          </g>
        </g>
        <g
           id="g6707"
           transform="matrix(0.91328,0.40733,-0.40733,0.91328,-276.49,-25.935)">
          <g
             id="g6709">
            <path
               id="path6711"
               d="m 21,5 h 103 c 8.86,0 16,7.136 16,16 v 153 c 0,8.86 -7.14,16 -16,16 H 21 C 12.136,190 5,182.86 5,174 V 21 C 5,12.136 12.136,5 21,5 Z"
               fill-opacity="0.49804" />
            <path
               id="path6713"
               d="m 17,1 h 103 c 8.86,0 16,7.136 16,16 v 153 c 0,8.86 -7.14,16 -16,16 H 17 C 8.136,186 1,178.86 1,170 V 17 C 1,8.136 8.136,1 17,1 Z"
               fill="#ffffff" />
            <path
               id="path6715"
               d="m 19,3 h 103 c 8.86,0 16,7.136 16,16 v 153 c 0,8.86 -7.14,16 -16,16 H 19 C 10.136,188 3,180.86 3,172 V 19 C 3,10.136 10.136,3 19,3 Z"
               fill="#c7891f" />
            <path
               id="path6717"
               d="m 18,2 h 103 c 8.86,0 16,7.136 16,16 v 153 c 0,8.86 -7.14,16 -16,16 H 18 C 9.136,187 2,179.86 2,171 V 18 C 2,9.136 9.136,2 18,2 Z"
               fill="url(#linearGradient6794)"
               style="fill:url(#linearGradient6794)" />
            <path
               id="path6719"
               d="m 53,31 c -9.401,0 -17,7.599 -17,17 v 93 c 0,9.4 7.599,17 17,17 h 33 c 9.401,0 17,-7.6 17,-17 V 48 C 103,38.599 95.401,31 86,31 Z m 0,2 h 33 c 8.327,0 15,6.673 15,15 v 93 c 0,8.33 -6.673,15 -15,15 H 53 c -8.327,0 -15,-6.67 -15,-15 V 48 c 0,-8.327 6.673,-15 15,-15 z"
               fill="#4f00a4" />
          </g>
          <g
             id="g1600"
             transform="matrix(1,0,0,0.40081,-239.33,-10.811)">
            <path
               id="path1561"
               fill-rule="evenodd"
               d="m 260.42,148.39 c -4.93,19.52 -20.04,52.76 -10.46,63.03 5.81,4.72 8.57,-4.95 9.74,-11.35 h 0.24 c -0.01,1.2 -0.22,24.75 -0.83,26.15 -1.36,3.06 -3.07,2.82 -3.07,2.82 l 0.04,3.33 8.94,-0.1 0.03,-3.29 c 0,0 -1.7,0.2 -3.05,-2.86 -0.61,-1.39 -0.83,-24.9 -0.84,-26.08 h 0.09 c 0.95,5.23 4.54,16.06 8.49,11.94 11.54,-11.57 -5.46,-44.47 -9.32,-63.59 z" />
          </g>
          <path
             id="path6723"
             d="M 25.079,36.775 H 15.078 L 13.499,42.24 H 7.07 l 9.187,-30 h 7.626 l 9.187,30 h -6.429 l -1.562,-5.465 m -8.406,-5.566 h 6.794 L 20.078,19.273 16.673,31.209" />
          <g
             id="g19507"
             transform="matrix(-1,0,0,-0.40081,378.02,199.48)">
            <path
               id="path19509"
               fill-rule="evenodd"
               d="m 260.42,148.39 c -4.93,19.52 -20.04,52.76 -10.46,63.03 5.81,4.72 8.57,-4.95 9.74,-11.35 h 0.24 c -0.01,1.2 -0.22,24.75 -0.83,26.15 -1.36,3.06 -3.07,2.82 -3.07,2.82 l 0.04,3.33 8.94,-0.1 0.03,-3.29 c 0,0 -1.7,0.2 -3.05,-2.86 -0.61,-1.39 -0.83,-24.9 -0.84,-26.08 h 0.09 c 0.95,5.23 4.54,16.06 8.49,11.94 11.54,-11.57 -5.46,-44.47 -9.32,-63.59 z" />
          </g>
          <path
             id="text19511"
             d="m 113.61,152.1 h 10 l 1.58,-5.47 h 6.43 l -9.19,30 h -7.62 l -9.19,-30 h 6.43 l 1.56,5.47 m 8.41,5.56 h -6.8 l 3.39,11.94 3.41,-11.94" />
          <g
             id="g4161"
             transform="matrix(2.1475,0,0,0.86129,-489.47,-68.756)">
            <path
               id="path4163"
               fill-rule="evenodd"
               d="m 260.42,148.39 c -4.93,19.52 -20.04,52.76 -10.46,63.03 5.81,4.72 8.57,-4.95 9.74,-11.35 h 0.24 c -0.01,1.2 -0.22,24.75 -0.83,26.15 -1.36,3.06 -3.07,2.82 -3.07,2.82 l 0.04,3.33 8.94,-0.1 0.03,-3.29 c 0,0 -1.7,0.2 -3.05,-2.86 -0.61,-1.39 -0.83,-24.9 -0.84,-26.08 h 0.09 c 0.95,5.23 4.54,16.06 8.49,11.94 11.54,-11.57 -5.46,-44.47 -9.32,-63.59 z" />
          </g>
        </g>
      </g>
    </g>
    <g
       aria-label="PySkat"
       transform="matrix(0.5567645,0,0,0.5567645,-142.34554,-42.668393)"
       id="text2677"
       style="font-weight:300;font-size:40px;font-family:'IBM Plex Sans';-inkscape-font-specification:'IBM Plex Sans Light';white-space:pre">
      <path
         style="color:#000000;-inkscape-font-specification:'IBM Plex Sans Light';fill:#000000;-inkscape-stroke:none"
         d="M 319.78227,121.02031 V 93.100312 h 10.96 q 3.64,0 5.56,2.120001 1.92,2.08 1.92,5.679997 0,3.64 -1.92,5.76 -1.92,2.08 -5.56,2.08 h -8.56 v 12.28 z m 2.4,-14.4 h 8.56 q 2.4,0 3.64,-1.32 1.28,-1.36 1.28,-3.44 v -1.919997 q 0,-2.04 -1.28,-3.36 -1.24,-1.36 -3.64,-1.36 h -8.56 z"
         id="path3221" />
      <path
         style="color:#000000;-inkscape-font-specification:'IBM Plex Sans Light';fill:#000000;-inkscape-stroke:none"
         d="m 356.31352,100.54031 h 2.32 l -9.48,26.24 q -0.48,1.28 -1.16,1.76 -0.68,0.48 -2.24,0.48 h -2.32 v -2 h 3.44 l 1.96,-5.4 -7.6,-21.08 h 2.4 l 6.28,18.04 h 0.16 z"
         id="path3223" />
      <path
         style="color:#000000;-inkscape-font-specification:'IBM Plex Sans Light';fill:#000000;-inkscape-stroke:none"
         d="m 370.85414,121.50031 q -3.44,0 -5.76,-1.28 -2.28,-1.32 -3.92,-3.48 l 1.8,-1.48 q 1.48,1.96 3.32,3.04 1.88,1.08 4.64,1.08 3.24,0 4.96,-1.52 1.76,-1.56 1.76,-4.32 0,-2.56 -1.48,-3.76 -1.48,-1.2 -4.16,-1.76 l -2.48,-0.52 q -4,-0.8 -5.8,-2.68 -1.8,-1.88 -1.8,-4.8 0,-1.839998 0.64,-3.199998 0.64,-1.4 1.8,-2.319999 1.2,-0.92 2.84,-1.400001 1.68,-0.479999 3.68,-0.479999 3.12,0 5.28,1.12 2.16,1.12 3.56,3.16 l -1.8,1.32 q -1.16,-1.680001 -2.92,-2.56 -1.72,-0.92 -4.24,-0.92 -3,0 -4.76,1.32 -1.72,1.28 -1.72,3.88 0,2.479997 1.56,3.639997 1.56,1.16 4.16,1.68 l 2.48,0.52 q 4.16,0.92 5.84,2.84 1.68,1.92 1.68,4.8 0,3.84 -2.44,5.96 -2.44,2.12 -6.72,2.12 z"
         id="path3225" />
      <path
         style="color:#000000;-inkscape-font-specification:'IBM Plex Sans Light';fill:#000000;-inkscape-stroke:none"
         d="m 385.94852,91.420312 h 2.28 v 19.559998 h 0.12 l 3.2,-3.4 6.8,-7.04 h 2.8 l -8.04,8.32 8.92,12.16 h -2.8 l -7.76,-10.72 -3.24,3.28 v 7.44 h -2.28 z"
         id="path3227" />
      <path
         style="color:#000000;-inkscape-font-specification:'IBM Plex Sans Light';fill:#000000;-inkscape-stroke:none"
         d="m 420.26289,121.02031 q -1.32,0 -1.92,-0.68 -0.6,-0.68 -0.68,-1.84 v -0.72 h -0.2 q -0.68,1.72 -2.24,2.72 -1.56,1 -3.96,1 -3.24,0 -5,-1.56 -1.76,-1.6 -1.76,-4.48 0,-2.72 1.92,-4.32 1.96,-1.6 6.4,-1.6 h 4.72 v -2.4 q 0,-5.08 -5.24,-5.08 -2.04,0 -3.4,0.88 -1.36,0.84 -2.2,2.44 l -1.44,-1.2 q 0.84,-1.8 2.56,-2.96 1.76,-1.16 4.56,-1.16 3.6,0 5.52,1.8 1.92,1.8 1.92,5.04 v 12.12 h 2.76 v 2 z m -8.68,-1.48 q 1.24,0 2.32,-0.32 1.08,-0.32 1.88,-0.88 0.84,-0.6 1.28,-1.4 0.48,-0.84 0.48,-1.88 v -3.8 h -4.8 q -3.08,0 -4.48,1 -1.36,0.96 -1.36,2.68 v 0.96 q 0,1.8 1.28,2.72 1.28,0.92 3.4,0.92 z"
         id="path3229" />
      <path
         style="color:#000000;-inkscape-font-specification:'IBM Plex Sans Light';fill:#000000;-inkscape-stroke:none"
         d="m 430.87477,121.02031 q -1.24,0 -1.88,-0.68 -0.64,-0.68 -0.64,-1.84 v -15.96 h -3.56 v -2 h 2.32 q 0.84,0 1.12,-0.32 0.32,-0.359997 0.32,-1.239998 v -4.16 h 2.08 v 5.719998 h 4.64 v 2 h -4.64 v 16.48 h 4.32 v 2 z"
         id="path3231" />
    </g>
  </g>
</svg>
